<svg version="1" xmlns="http://www.w3.org/2000/svg" width="346.667" height="346.667" viewBox="0 0 260.000000 260.000000"><path d="M0 130v130h260V0H0v130zm114-57.5c9.5 3.3 17.5 11.2 21.5 21.2l2.3 5.6 2.7-4.4c9.2-14.8 21-22.5 37.1-24.4 7.2-.8 16.9.8 23.3 3.8 4.8 2.2 13.5 10.4 14.5 13.5.4 1.2-1.1 4.4-4.1 9.1l-4.7 7.2-2.4-4.8c-3-6-7.5-10.9-12.7-13.6-6.1-3.2-18.1-3-25.7.5-10.6 4.9-17.9 14-22.4 27.8-1.5 4.7-1.8 10.4-2.2 40.8l-.4 35.3-6.6-.3-6.7-.3-.6-39.5c-.5-41.4-.7-42.7-5.4-52.1-11.2-22-45.1-18.4-57.5 6.1-5.3 10.4-5.4 11.2-5.9 49.5l-.6 36-6.7.3-6.8.3V72h14v11.2l.1 11.3 2.1-3c7-9.8 19.4-18.2 30.3-20.4 6.1-1.2 18.1-.5 23.5 1.4z"/></svg>